<?xml version="1.0" encoding="UTF-8"?>
<!--
SPDX-FileCopyrightText: 2026 Kaito Udagawa <umireon@kaito.tokyo>

SPDX-License-Identifier: Apache-2.0
-->
<svg id="Layer_1" xmlns="http://www.w3.org/2000/svg" version="1.1" viewBox="0 0 1024 1024">
  <!-- Generator: Adobe Illustrator 30.4.0, SVG Export Plug-In . SVG Version: 2.1.4 Build 226)  -->
  <g>
    <path d="M328.827,468.238l-22.224,6.417c-15.346,6.54-29.979,8.243-46.725,8.63-35.798.829-71.321-9.85-97.92-34.081-25.595-23.316-39.405-55.53-37.37-90.217-3.108-69.478,47.306-127.768,115.226-138.98,24.166-3.989,48.496-3.603,72.449.806,25.478,4.69,48.406,15.532,67.788,31.871,22.969,19.363,33.854,45.688,34.292,75.359.422,28.587-5.08,55.12-19.182,80.224-15.033,26.76-37.111,48.276-66.334,59.971ZM317.252,433.621c25.944-19.096,45.618-43.989,56.35-73.926,3.206-8.944,6.101-18.227,6.1-27.706,0-24.666-13.132-45.923-33.1-59.651-21.905-15.086-46.91-22.43-73.606-24.807-61.394,1.851-112.041,49.421-117.737,110.702,1.613,34.062,19.987,64.702,49.331,82.218,17.868,9.892,36.57,17.686,57.512,18.161,10.038.228,23.186-1.464,31.129-7.311l24.02-17.68Z"/>
    <path d="M284.5,875.808c-15.747,7.728-41.377,6.419-57.247.883-32.523-11.345-60.423-32.904-78.848-61.913-13.187-20.762-18.489-43.435-18.187-67.754.217-17.479,1.681-33.504,7.817-50.045,13.632-36.745,40.637-66.893,76.028-83.783,18.926-9.033,38.167-11.787,58.955-11.965,22.673-.194,44.303,3.8,64.025,14.533,46.545,25.33,72.834,73.604,71.798,126.269-.508,25.816-4.205,50.086-17.058,72.765-11.107,19.599-26.405,35.155-46.833,45.219-18.814,9.269-38.709,14.334-60.45,15.79ZM269.485,856.345l35.026-10.871c16.928-5.254,31.366-14.65,44.274-26.776,20.398-21.754,32.234-50.479,32.669-79.817-4.714-55.235-43.562-100.023-97.599-110.964-8.859-1.794-16.773-1.7-25.739.419-54.58,12.897-95.7,63.672-100.639,119.155,1.501,25.588,12.216,48.663,29.484,67.58,21.23,22.42,50.668,38.441,82.525,41.274Z"/>
    <path d="M825.955,776.783l-115.967-10.191c-30.595-2.689-60.185-3.129-90.697-2.372l-44.521,3.27c-10.301.757-19.988,1.899-30.319,1.287l.108-16.806c1.531-2.771,6.223-6.046,9.666-6.701l23.582-4.488c22.445-2.38,44.313-4.051,66.972-4.05l70.506.002c50.659.002,100.095,5.763,150.6,10.253l57.208,5.087,18.91,3.695-.014,15.925-18.296,6.155c-5.925,1.993-13.018,2.088-19.476,2.385-26.436,1.219-51.71-1.117-78.263-3.45Z"/>
    <path d="M755.466,360.866c-36.654-3.622-71.301-6.426-107.431-7.329-31.462-.786-61.432,2.23-92.145,8.159-5.349,1.033-10.877.158-16.782.122l-.106-17.603c8.297-5.279,16.479-8.237,26.108-10.175,29.715-5.982,59.246-7.723,89.873-8.312,55.177-1.062,109.49,1.255,164.312,6.966,16.809,1.751,32.721,3.862,48.809,8.235l24.946,9.689-.1,16.028-19.943,2.27c-15.619,1.778-31.167.484-47.014-1.082l-70.528-6.969Z"/>
  </g>
  <path fill="#ff0000" d="M924.929,173.078c3.733-17.628-4.322-20.112-4.071-20.533.461-.772,2.527-2.606,3.456-2.516,11.029,1.065,15.432,19.755,13.075,35.134-3.285,21.436-11.364,41.751-23.645,59.381-9.035,12.97-21.748,19.693-36.974,22.455-15.055,2.73-30.332,2.221-43.393-6.442-5.897-3.911-10.331-9.577-15.264-14.695-22.7-23.547-24.825-59.215-9.498-87.233,5.01-9.158,9.946-18.066,18.53-24.667,13.336-10.255,31.857-15.98,48.372-11.559l23.83,6.38-14.128,7.389-10.884,6.272c-12.645,5.771-24.255,14.761-29.913,27.952-7.389,17.227-3.09,37.331,8.616,51.27,8.181,1.934,15.07.335,22.709-.931,12.15-2.013,22.851-6.54,31.472-15.589,8.594-9.021,15.084-19.665,17.71-32.069Z"/>
</svg>
